<?xml version="1.0" encoding="UTF-8"?>
<svg version="1.1" xmlns="http://www.w3.org/2000/svg" width="500" height="500">
<path d="M0 0 C165 0 330 0 500 0 C500 165 500 330 500 500 C335 500 170 500 0 500 C0 335 0 170 0 0 Z " fill="#FEFEFE" transform="translate(0,0)"/>
<path d="M0 0 C2.9081861 1.42137951 5.82241607 2.8297349 8.73730469 4.23730469 C10.51120866 5.10353758 12.28467079 5.97067609 14.05761719 6.83886719 C15.24327271 7.40927734 15.24327271 7.40927734 16.45288086 7.99121094 C25.22439894 12.33300365 31.50205236 17.32383264 37.05761719 25.40136719 C37.60434082 26.17931641 38.15106445 26.95726563 38.71435547 27.75878906 C40.49493684 30.31382031 42.24868219 32.88538848 43.99511719 35.46386719 C44.89157959 36.78281982 44.89157959 36.78281982 45.80615234 38.12841797 C55.95071449 53.14669253 65.13444533 68.66015235 73.99511719 84.46386719 C74.39778809 85.17381836 74.80045898 85.88376953 75.21533203 86.61523438 C80.26388247 95.53836384 84.58693744 104.81092186 88.93261719 114.08886719 C89.22646301 114.712995 89.52030884 115.3371228 89.82305908 115.98016357 C90.6665728 117.77651455 91.50091842 119.57716171 92.33496094 121.37792969 C92.82343506 122.42932129 93.31190918 123.48071289 93.81518555 124.56396484 C94.89743264 127.22378917 95.54983624 129.63582829 95.99511719 132.46386719 C99.69316726 128.86594483 103.06955584 125.11414307 106.37011719 121.15136719 C107.34105131 119.99606613 108.31240468 118.84111728 109.28417969 117.68652344 C109.74985352 117.1323877 110.21552734 116.57825195 110.6953125 116.00732422 C113.41271252 112.7805393 116.16572489 109.59292419 118.99511719 106.46386719 C119.49785156 105.89539063 120.00058594 105.32691406 120.51855469 104.74121094 C127.20318802 97.58376207 137.09829687 89.21466029 147.08105469 88.12792969 C155.09797273 88.03271688 159.66515515 88.40131373 165.63964844 94.00683594 C173.32001775 102.17306803 173.47761289 111.04715524 173.38623047 121.67211914 C173.37017736 123.8930427 173.38611744 126.1121403 173.40527344 128.33300781 C173.42396429 137.9889981 173.17333396 147.29075649 166.22607422 154.71728516 C160.77555567 158.9844125 154.1839615 161.63770145 147.93261719 164.52636719 C146.47941712 165.21298354 145.02693654 165.90112482 143.57519531 166.59082031 C140.05920535 168.25649317 136.53237003 169.89746866 133.00115967 171.53057861 C131.04346782 172.4413726 129.09298075 173.36605411 127.14404297 174.29541016 C125.98243652 174.84471191 124.82083008 175.39401367 123.62402344 175.95996094 C122.6051001 176.4452124 121.58617676 176.93046387 120.53637695 177.43041992 C117.99511719 178.46386719 117.99511719 178.46386719 114.99511719 178.46386719 C116.09549246 182.44409206 117.20111096 186.42284277 118.30761719 190.40136719 C118.61634766 191.51833984 118.92507813 192.6353125 119.24316406 193.78613281 C120.57575206 198.56942237 121.91193212 203.33227922 123.52246094 208.03027344 C137.14542371 247.99187152 143.10495007 291.68657345 147.99511719 333.46386719 C148.1461792 334.6886377 148.29724121 335.9134082 148.45288086 337.17529297 C149.93982717 349.54631567 150.83686903 361.9441432 151.5925293 374.37939453 C151.73662192 376.69697957 151.88904753 379.0140607 152.04956055 381.33056641 C152.28535626 384.73607894 152.4964 388.14235979 152.70214844 391.54980469 C152.77697952 392.56883881 152.85181061 393.58787292 152.9289093 394.63778687 C153.32064819 401.78420929 152.86144817 408.81376056 149.99511719 415.46386719 C146.33515886 418.75093007 142.73202211 420.14484383 137.93261719 421.02636719 C132.46186015 419.97877541 128.52231892 418.44704406 125.10131836 414.00463867 C123.16192748 410.85518045 121.37228686 407.65870668 119.62011719 404.40136719 C118.96598209 403.21996377 118.31020163 402.03946998 117.65283203 400.85986328 C115.7389888 397.40930974 113.86644661 393.93765095 111.99511719 390.46386719 C111.03731294 388.71748315 110.0790378 386.97135724 109.12011719 385.22558594 C84.71373367 340.31002725 68.70987032 290.40311008 68.87011719 238.96386719 C68.86625 237.7225 68.86238281 236.48113281 68.85839844 235.20214844 C68.87205545 222.24164591 70.46761419 210.13317466 72.99511719 197.46386719 C72.23932373 197.76454102 71.48353027 198.06521484 70.70483398 198.375 C42.26388929 209.64489736 13.45671925 220.15794289 -16.00488281 228.46386719 C-16.87290527 228.71297852 -17.74092773 228.96208984 -18.63525391 229.21875 C-32.68726419 233.19237917 -46.938384 235.81906991 -61.31738281 238.27636719 C-62.21060242 238.42952393 -63.10382202 238.58268066 -64.02410889 238.74047852 C-79.12720592 241.31201653 -93.8002628 242.72750082 -109.12988281 242.77636719 C-109.9184668 242.7789856 -110.70705078 242.781604 -111.51953125 242.78430176 C-130.05510297 242.79086004 -147.47434068 240.71060116 -165.00488281 234.46386719 C-165.84390137 234.16552979 -166.68291992 233.86719238 -167.54736328 233.55981445 C-180.85398616 228.69970145 -193.05954099 221.37723448 -204.00488281 212.46386719 C-204.65585938 211.97660156 -205.30683594 211.48933594 -205.97753906 210.98730469 C-216.26392678 202.97376346 -224.0128351 190.38259245 -226.00488281 177.46386719 C-227.5288478 157.67730533 -219.44676784 143.05492278 -207.00488281 128.46386719 C-164.47058288 80.69230041 -94.2989642 55.00915343 -36.50439453 31.24804688 C-35.4129715 30.79837303 -35.4129715 30.79837303 -34.29949951 30.33961487 C-32.95195715 29.78499511 -31.60359509 29.23236043 -30.25421143 28.68223572 C-26.41416154 27.10261106 -22.69701362 25.36294998 -19.00488281 23.46386719 C-77.67383612 -6.99312037 -77.67383612 -6.99312037 -141.00488281 -8.53613281 C-147.73158389 -5.31579088 -151.49105618 -1.55389882 -154.00488281 5.46386719 C-155.10559041 8.76598998 -155.21115353 11.40469997 -155.32128906 14.88183594 C-155.36318359 16.13544922 -155.40507812 17.3890625 -155.44824219 18.68066406 C-155.48755859 19.99099609 -155.526875 21.30132812 -155.56738281 22.65136719 C-155.61059273 23.98666697 -155.65420781 25.32195371 -155.69824219 26.65722656 C-155.80444783 29.92600016 -155.90649278 33.19485052 -156.00488281 36.46386719 C-175.36067483 40.85678573 -175.36067483 40.85678573 -184.00488281 40.46386719 C-187.73771663 20.37006218 -186.52555164 -1.24176453 -175.00488281 -18.53613281 C-169.82031513 -25.63500241 -163.79654421 -30.50527332 -156.00488281 -34.53613281 C-155.03164062 -35.0453125 -154.05839844 -35.55449219 -153.05566406 -36.07910156 C-106.26260621 -55.8484763 -40.56175911 -19.8471678 0 0 Z " fill="#020202" transform="translate(254.0048828125,66.5361328125)"/>
<path d="M0 0 C3.04113998 2.13671174 4.76447716 5.0137673 6.7265625 8.1015625 C7.1604126 8.76961914 7.5942627 9.43767578 8.04125977 10.12597656 C9.40568844 12.2360041 10.75478755 14.35523274 12.1015625 16.4765625 C12.51744629 17.1252832 12.93333008 17.77400391 13.36181641 18.44238281 C32.88323065 48.91597022 49.33337543 80.9718542 62.66796875 114.609375 C62.94584229 115.30949707 63.22371582 116.00961914 63.51000977 116.73095703 C64.1015625 118.4765625 64.1015625 118.4765625 64.1015625 120.4765625 C41.41583032 129.60494952 18.65171932 138.32029643 -4.47167969 146.27856445 C-7.48461553 147.33188991 -10.47076997 148.43651026 -13.45703125 149.5625 C-19.94622772 151.93624458 -26.59283946 153.66841088 -33.2734375 155.4140625 C-34.60442687 155.76450606 -35.93539997 156.1150114 -37.26635742 156.46557617 C-80.61602218 167.84052979 -138.15546432 181.90315543 -179.8984375 158.4765625 C-180.99027344 157.93 -182.08210938 157.3834375 -183.20703125 156.8203125 C-194.59895984 151.02557426 -203.92302961 144.29660375 -210.2734375 133.0390625 C-212.15982359 125.30487953 -210.85801741 120.0813081 -206.8046875 113.24609375 C-203.59095415 108.57696066 -199.84624584 104.52917992 -195.8984375 100.4765625 C-195.34542969 99.87328125 -194.79242188 99.27 -194.22265625 98.6484375 C-150.23610317 51.93319006 -74.17958639 27.89184733 -15.95703125 4.82421875 C-14.88374573 4.39897415 -13.81046021 3.97372955 -12.70465088 3.53559875 C-11.2255423 2.95155525 -11.2255423 2.95155525 -9.71655273 2.35571289 C-8.42381691 1.84519127 -8.42381691 1.84519127 -7.10496521 1.32435608 C-2.12976436 -0.58721898 -2.12976436 -0.58721898 0 0 Z " fill="#FEFEFE" transform="translate(267.8984375,110.5234375)"/>
<path d="M0 0 C5.81622097 2.40192061 10.16945307 6.33890614 13 12 C13.50178565 18.44601568 13.96229274 24.58486659 10 30 C5.24448508 34.5487534 1.71580855 36.73287129 -4.8125 37.375 C-10.72955616 37.20721958 -15.29437118 34.75051379 -19.375 30.5625 C-23.0279119 24.80213892 -23.85683445 19.77005 -23 13 C-21.02962464 7.37644223 -17.20626418 3.85909436 -12.140625 0.921875 C-8.17892332 -0.7842593 -4.21696905 -0.62051497 0 0 Z " fill="#030303" transform="translate(307,50)"/>
<path d="M0 0 C0.66 0 1.32 0 2 0 C20.58611572 69.81247859 20.58611572 69.81247859 20 102 C17.52349159 99.52349159 17.04229915 97.54091927 15.9765625 94.20703125 C15.40421875 92.42329102 15.40421875 92.42329102 14.8203125 90.60351562 C14.42585938 89.35248047 14.03140625 88.10144531 13.625 86.8125 C13.23828125 85.61173828 12.8515625 84.41097656 12.453125 83.17382812 C7.96212871 69.07541528 4.36710028 55.13022578 2.25 40.5 C2.08741196 39.4042868 2.08741196 39.4042868 1.92153931 38.28643799 C0.04383521 25.47758314 -0.59341251 12.94957959 0 0 Z " fill="#EFEFEF" transform="translate(352,298)"/>
<path d="M0 0 C0.33 0 0.66 0 1 0 C1.58791891 4.04845425 1.54927338 7.18179077 0 11 C-4.23579177 14.76576629 -9.73450149 17.06353971 -15 19 C-15.66 18.67 -16.32 18.34 -17 18 C-14.54220967 15.37449113 -12.08367499 12.74968042 -9.625 10.125 C-8.92632812 9.37863281 -8.22765625 8.63226563 -7.5078125 7.86328125 C-6.8375 7.14785156 -6.1671875 6.43242187 -5.4765625 5.6953125 C-4.85861816 5.03547363 -4.24067383 4.37563477 -3.60400391 3.69580078 C-2.42157912 2.44570602 -1.21673031 1.21673031 0 0 Z " fill="#E9E9E9" transform="translate(398,189)"/>
</svg>
